<?xml version="1.0" encoding="utf-8"?><svg viewBox="0 0 502.66 502.66" xmlns="http://www.w3.org/2000/svg" xmlns:xlink="http://www.w3.org/1999/xlink"><style>:root>svg{display:none}:root>svg:target{display:block}</style><svg fill="none" viewBox="0 0 31 25" id="burger" xmlns="http://www.w3.org/2000/svg"><path fill-rule="evenodd" clip-rule="evenodd" d="M1.192.696c-.316 0-.62.14-.843.389C.126 1.333 0 1.67 0 2.023s.126.69.35.938c.223.25.526.39.842.39h28.616c.316 0 .62-.14.843-.39.223-.248.349-.586.349-.938s-.126-.69-.35-.938a1.134 1.134 0 00-.842-.39H1.192zM0 12.64c0-.351.126-.69.35-.938.223-.249.526-.389.842-.389h28.616c.316 0 .62.14.843.389.223.249.349.587.349.938 0 .352-.126.69-.35.939a1.134 1.134 0 01-.842.389H1.192c-.316 0-.62-.14-.843-.389A1.407 1.407 0 010 12.64zm0 10.618c0-.352.126-.69.35-.938.223-.25.526-.39.842-.39h28.616c.316 0 .62.14.843.39.223.248.349.586.349.938s-.126.69-.35.939a1.134 1.134 0 01-.842.388H1.192c-.316 0-.62-.14-.843-.389A1.407 1.407 0 010 23.259z" fill="#fff"/></svg><svg fill="none" viewBox="0 0 19 20" id="close" xmlns="http://www.w3.org/2000/svg"><path stroke="#fff" d="M1.364.657l17.165 18.175M17.636.657L.471 18.832"/></svg><svg viewBox="0 0 502.664 502.664" id="icon" xmlns="http://www.w3.org/2000/svg"><g fill="#010002"><path d="M153.821 358.226L0 274.337v-46.463l153.821-83.414v54.574L46.636 250.523l107.185 53.431v54.272zM180.094 387.584L282.103 115.08h32.227L212.084 387.584h-31.99zM348.843 358.226v-54.272l107.164-52.999-107.164-52.59v-53.927l153.821 83.522v46.183l-153.821 84.083z"/></g></svg><svg fill="none" viewBox="0 0 29 29" id="phone" xmlns="http://www.w3.org/2000/svg"><path d="M19.34 16.263c-.82 0-1.613-.133-2.353-.373a.651.651 0 00-.674.16l-1.046 1.314c-1.887-.9-3.654-2.601-4.594-4.555l1.3-1.107a.68.68 0 00.16-.68 7.442 7.442 0 01-.373-2.355c0-.36-.3-.66-.66-.66H8.793c-.36 0-.793.16-.793.66 0 6.196 5.153 11.344 11.34 11.344.473 0 .66-.42.66-.787v-2.3c0-.36-.3-.66-.66-.66z" fill="#fff"/><circle cx="14.5" cy="14.5" r="14" stroke="#fff"/></svg><svg fill="none" viewBox="0 0 21 27" id="play" xmlns="http://www.w3.org/2000/svg"><path d="M0 0l21 13.55L0 27V0z" fill="#fff"/></svg><svg fill="none" viewBox="0 0 16 10" id="v" xmlns="http://www.w3.org/2000/svg"><path d="M14.5.659L8 8.124 1 1.157" stroke="#fff" stroke-width="2"/></svg><svg fill="none" viewBox="0 0 22 13" id="v-black" xmlns="http://www.w3.org/2000/svg"><path fill-rule="evenodd" clip-rule="evenodd" d="M21.695 1.72L10.604 12.434.762 1.675 2.238.325l8.454 9.242L20.305.281l1.39 1.439z" fill="#000"/></svg></svg>