<?xml version="1.0" encoding="utf-8"?><svg viewBox="0 0 502.66 502.66" xmlns="http://www.w3.org/2000/svg" xmlns:xlink="http://www.w3.org/1999/xlink"><style>:root>svg{display:none}:root>svg:target{display:block}</style><svg fill="none" viewBox="0 0 31 25" id="burger" xmlns="http://www.w3.org/2000/svg"><path fill-rule="evenodd" clip-rule="evenodd" d="M1.192.696c-.316 0-.62.14-.843.389C.126 1.333 0 1.67 0 2.023s.126.69.35.938c.223.25.526.39.842.39h28.616c.316 0 .62-.14.843-.39.223-.248.349-.586.349-.938s-.126-.69-.35-.938a1.134 1.134 0 00-.842-.39H1.192zM0 12.64c0-.351.126-.69.35-.938.223-.249.526-.389.842-.389h28.616c.316 0 .62.14.843.389.223.249.349.587.349.938 0 .352-.126.69-.35.939a1.134 1.134 0 01-.842.389H1.192c-.316 0-.62-.14-.843-.389A1.407 1.407 0 010 12.64zm0 10.618c0-.352.126-.69.35-.938.223-.25.526-.39.842-.39h28.616c.316 0 .62.14.843.39.223.248.349.586.349.938s-.126.69-.35.939a1.134 1.134 0 01-.842.388H1.192c-.316 0-.62-.14-.843-.389A1.407 1.407 0 010 23.259z" fill="currentColor"/></svg><svg fill="none" viewBox="0 0 31 25" id="burger-black" xmlns="http://www.w3.org/2000/svg"><path fill-rule="evenodd" clip-rule="evenodd" d="M1.192.696c-.316 0-.62.14-.843.389C.126 1.333 0 1.67 0 2.023s.126.69.35.938c.223.25.526.39.842.39h28.616c.316 0 .62-.14.843-.39.223-.248.349-.586.349-.938s-.126-.69-.35-.938a1.134 1.134 0 00-.842-.39H1.192zM0 12.64c0-.351.126-.69.35-.938.223-.249.526-.389.842-.389h28.616c.316 0 .62.14.843.389.223.249.349.587.349.938 0 .352-.126.69-.35.939a1.134 1.134 0 01-.842.389H1.192c-.316 0-.62-.14-.843-.389A1.407 1.407 0 010 12.64zm0 10.618c0-.352.126-.69.35-.938.223-.25.526-.39.842-.39h28.616c.316 0 .62.14.843.39.223.248.349.586.349.938s-.126.69-.35.939a1.134 1.134 0 01-.842.388H1.192c-.316 0-.62-.14-.843-.389A1.407 1.407 0 010 23.259z" fill="#000"/></svg><svg fill="none" viewBox="0 0 19 20" id="close" xmlns="http://www.w3.org/2000/svg"><path stroke="currentColor" d="M1.364.657l17.165 18.175M17.636.657L.471 18.832"/></svg><svg fill="none" viewBox="0 0 19 20" id="close-black" xmlns="http://www.w3.org/2000/svg"><path stroke="#000" d="M1.364.657l17.165 18.175M17.636.657L.471 18.832"/></svg><svg viewBox="0 0 502.664 502.664" id="icon" xmlns="http://www.w3.org/2000/svg"><g fill="#010002"><path d="M153.821 358.226L0 274.337v-46.463l153.821-83.414v54.574L46.636 250.523l107.185 53.431v54.272zM180.094 387.584L282.103 115.08h32.227L212.084 387.584h-31.99zM348.843 358.226v-54.272l107.164-52.999-107.164-52.59v-53.927l153.821 83.522v46.183l-153.821 84.083z"/></g></svg><svg fill="none" viewBox="0 0 250 60" id="logo" xmlns="http://www.w3.org/2000/svg"><path d="M60.7 45.268h1.4L68 58.905h-1.8l-1.8-4.081h-6.2l-1.7 4.081h-1.7l5.9-13.637zm-1.8 7.963h4.9l-2.5-5.773-2.4 5.773zM77.8 58.905V45.368h3.6c3.9 0 5 2.09 5 4.18 0 2.19-1.6 4.28-4.9 4.28-.5 0-1.4 0-2-.099v5.176h-1.7zm1.7-12.044v5.275c.7.1 1.3.1 2 .1 2 0 3.2-.995 3.2-2.688 0-1.592-1-2.588-3.1-2.588-.6-.1-1.5-.1-2.1-.1zM99.9 45.268h1.4l5.9 13.637h-1.8l-1.8-4.081h-6.2l-1.7 4.081H94l5.9-13.637zm-1.8 7.963h4.9l-2.5-5.773-2.4 5.773zM117 45.368h3.7c3.7 0 4.8 1.891 4.8 4.08 0 2.091-1.5 3.485-3 3.883l4.5 5.773h-2l-4.2-5.474h-2.2v5.474H117V45.368zm1.7 1.493v5.076h2c1.6 0 3.1-.995 3.1-2.588 0-1.393-.8-2.488-3.2-2.488h-1.9zM135 45.368h11.2v1.493h-4.8v12.044h-1.6V46.861H135v-1.493zM156 45.368h1.7l5.1 6.968 4.9-6.968h1.6v13.537h-1.7v-10.95l-4.8 6.77h-.2l-4.9-6.67v10.85H156V45.368zM180.8 45.368h7.7v1.493h-6.1v4.38h5.5v1.592h-5.5v4.579h6.3v1.493h-7.9V45.368zM209.2 58.905l-8.5-10.65v10.65h-1.6V45.368h1.4l8.5 10.65v-10.65h1.5v13.537h-1.3zM220.3 45.368h11.2v1.493h-4.8v12.044h-1.6V46.861h-4.8v-1.493zM240.8 48.752c0-1.99 1.5-3.583 4.1-3.583 1.6 0 3 .597 3.8 1.393l-.9 1.195c-.7-.697-1.6-1.095-2.8-1.095-1.5 0-2.5.796-2.5 1.99 0 3.385 6.7 2.09 6.7 6.77 0 2.189-2 3.682-4.4 3.682-1.7 0-3.6-.796-4.3-1.99l1-1.096c.8 1.095 2.2 1.593 3.4 1.593 1.4 0 2.7-.697 2.7-2.09-.2-3.385-6.8-2.29-6.8-6.769zM82.1 1.47h1.3V34.32l-24-29.364V33.82h-1.3V.973l24 29.265V1.47zM89.9 1.47h11.7v1.195H91.3v17.619h8.6v1.294h-8.6v11.049h10.3v1.194H89.9V1.471zM117.8 34.418L103.5 1.471h1.6L118 31.134l6.1-14.035-6.8-15.628h1.6l6 14.234 6.2-14.234h1.3l-6.8 15.528 6.2 14.234 13.1-29.762h1.2l-14.5 32.947-6.9-15.826-6.9 15.826zM164.3 1.47v1.195h-7.4v31.156h-1.4V2.665H148V1.471h16.3zM168.6 29.342c-3.3-3.384-4.9-7.266-4.9-11.845 0-4.48 1.7-8.461 5-11.746s7.3-4.977 12-4.977 8.6 1.692 11.9 4.977c3.3 3.285 5 7.167 5 11.746 0 4.579-1.6 8.46-4.9 11.845-3.3 3.384-7.2 5.076-11.7 5.076h-.7c-4.5 0-8.4-1.692-11.7-5.076zm27.5-11.746c0-4.28-1.5-7.863-4.5-10.949-3-3.086-6.7-4.579-10.9-4.579-4.3 0-7.9 1.493-11 4.579-3.1 3.086-4.6 6.67-4.6 10.95 0 4.28 1.5 7.863 4.6 10.949 3 3.085 6.7 4.578 10.9 4.578 4.3 0 7.9-1.493 10.9-4.578 3.1-2.987 4.6-6.67 4.6-10.95zM226.8 1.47h1.2V34.32L204 4.955V33.82h-1.2V.973l24 29.265V1.47zM.7 58.905L.3 30.238 0 1.57h1.3L.7 58.905zM4.8 58.905L4.2 1.57h1.3l-.3 28.668-.4 28.667zM9 58.905L8.4 1.57h1.3l-.4 28.668L9 58.905zM13.2 58.905l-.3-28.667-.4-28.668h1.3l-.6 57.335zM17.4 58.905L17 30.238 16.7 1.57H18l-.6 57.335zM21.5 58.905L20.9 1.57h1.3l-.3 28.668-.4 28.667zM25.7 58.905L25.1 1.57h1.3L26 30.238l-.3 28.667zM42.5 1.57l.4 28.668.3 28.667h-1.3l.6-57.335zM38.4 1.57l.6 57.335h-1.3l.3-28.667.4-28.668zM34.2 1.57l.6 57.335h-1.3l.4-28.667.3-28.668zM30 1.57l.3 28.668.4 28.667h-1.3L30 1.57z" fill="currentColor"/><path d="M25.8 1.57l.4 28.668.3 28.667h-1.3l.6-57.335zM21.6 1.57l.4 28.668.3 28.667H21l.6-57.335zM17.5 1.57l.6 57.335h-1.3l.3-28.667.4-28.668z" fill="currentColor"/></svg><svg fill="none" viewBox="0 0 32 32" id="metro" xmlns="http://www.w3.org/2000/svg"><circle cx="15.75" cy="15.75" r="15.75" fill="#fff"/><path d="M12.585 12.89V20h-1.872v-9.414h3.006l2.358 5.868 2.376-5.868h2.826V20h-2.142v-7.11L16.167 20h-.72l-2.862-7.11z" fill="#568F27"/></svg><svg fill="none" viewBox="0 0 29 29" id="phone" xmlns="http://www.w3.org/2000/svg"><path d="M19.34 16.263c-.82 0-1.613-.133-2.353-.373a.651.651 0 00-.674.16l-1.046 1.314c-1.887-.9-3.654-2.601-4.594-4.555l1.3-1.107a.68.68 0 00.16-.68 7.442 7.442 0 01-.373-2.355c0-.36-.3-.66-.66-.66H8.793c-.36 0-.793.16-.793.66 0 6.196 5.153 11.344 11.34 11.344.473 0 .66-.42.66-.787v-2.3c0-.36-.3-.66-.66-.66z" fill="currentColor"/><circle cx="14.5" cy="14.5" r="14" stroke="currentColor"/></svg><svg fill="none" viewBox="0 0 21 27" id="play" xmlns="http://www.w3.org/2000/svg"><path d="M0 0l21 13.55L0 27V0z" fill="#fff"/></svg><svg fill="none" viewBox="0 0 16 10" id="v" xmlns="http://www.w3.org/2000/svg"><path d="M14.5.659L8 8.124 1 1.157" stroke="#fff" stroke-width="2"/></svg><svg fill="none" viewBox="0 0 22 13" id="v-black" xmlns="http://www.w3.org/2000/svg"><path fill-rule="evenodd" clip-rule="evenodd" d="M21.695 1.72L10.604 12.434.762 1.675 2.238.325l8.454 9.242L20.305.281l1.39 1.439z" fill="#000"/></svg></svg>